<svg width="39" height="39" viewBox="0 0 39 39" fill="none" xmlns="http://www.w3.org/2000/svg">
<path d="M19.5 24.375C22.0859 24.375 24.5658 23.3478 26.3943 21.5193C28.2228 19.6908 29.25 17.2109 29.25 14.625C29.25 12.0391 28.2228 9.55919 26.3943 7.73071C24.5658 5.90223 22.0859 4.875 19.5 4.875C16.9141 4.875 14.4342 5.90223 12.6057 7.73071C10.7772 9.55919 9.75 12.0391 9.75 14.625C9.75 17.2109 10.7772 19.6908 12.6057 21.5193C14.4342 23.3478 16.9141 24.375 19.5 24.375ZM19.5 26.8125C16.2677 26.8125 13.1677 25.5285 10.8821 23.2429C8.59654 20.9573 7.3125 17.8573 7.3125 14.625C7.3125 11.3927 8.59654 8.29274 10.8821 6.00714C13.1677 3.72154 16.2677 2.4375 19.5 2.4375C22.7323 2.4375 25.8323 3.72154 28.1179 6.00714C30.4035 8.29274 31.6875 11.3927 31.6875 14.625C31.6875 17.8573 30.4035 20.9573 28.1179 23.2429C25.8323 25.5285 22.7323 26.8125 19.5 26.8125Z" fill="#4AA9BC"/>
<path d="M19.5 24.375C20.3125 24.375 20.7188 24.7812 20.7188 25.5938V35.3438C20.7188 36.1562 20.3125 36.5625 19.5 36.5625C18.6875 36.5625 18.2812 36.1562 18.2812 35.3438V25.5938C18.2812 24.7812 18.6875 24.375 19.5 24.375Z" fill="#4AA9BC"/>
<path d="M13.4062 30.4688H25.5938C26.4062 30.4688 26.8125 30.875 26.8125 31.6875C26.8125 32.5 26.4062 32.9062 25.5938 32.9062H13.4062C12.5937 32.9062 12.1875 32.5 12.1875 31.6875C12.1875 30.875 12.5937 30.4688 13.4062 30.4688Z" fill="#4AA9BC"/>
</svg>
