<svg width="42" height="42" viewBox="0 0 42 42" fill="none" xmlns="http://www.w3.org/2000/svg">
<g id="heart">
<path id="Vector" d="M36.4704 8.0674C35.5765 7.17316 34.5153 6.46378 33.3472 5.9798C32.1792 5.49581 30.9272 5.2467 29.6629 5.2467C28.3985 5.2467 27.1465 5.49581 25.9785 5.9798C24.8104 6.46378 23.7492 7.17316 22.8554 8.0674L21.0004 9.9224L19.1454 8.0674C17.3399 6.26194 14.8912 5.24764 12.3379 5.24764C9.78455 5.24764 7.33582 6.26194 5.53036 8.0674C3.7249 9.87286 2.7106 12.3216 2.7106 14.8749C2.7106 17.4282 3.7249 19.8769 5.53036 21.6824L7.38536 23.5374L21.0004 37.1524L34.6154 23.5374L36.4704 21.6824C37.3646 20.7886 38.074 19.7273 38.558 18.5593C39.0419 17.3912 39.2911 16.1393 39.2911 14.8749C39.2911 13.6105 39.0419 12.3586 38.558 11.1905C38.074 10.0225 37.3646 8.96122 36.4704 8.0674V8.0674Z" stroke="#4AA9BC" stroke-width="3" stroke-linecap="round" stroke-linejoin="round"/>
</g>
</svg>
