<svg width="50" height="50" viewBox="0 0 50 50" fill="none" xmlns="http://www.w3.org/2000/svg">
<path d="M46.712 42.3437L37.9229 21.0546C37.7606 20.6615 37.4852 20.3253 37.1317 20.0888C36.7782 19.8523 36.3624 19.7261 35.9371 19.7261C35.5117 19.7261 35.096 19.8523 34.7425 20.0888C34.3889 20.3253 34.1136 20.6615 33.9512 21.0546L25.1622 42.3437C25.0529 42.6048 24.9963 42.8849 24.9956 43.1679C24.9948 43.4509 25.0501 43.7313 25.158 43.9929C25.266 44.2545 25.4246 44.4922 25.6247 44.6924C25.8248 44.8925 26.0625 45.0512 26.3241 45.1592C26.5858 45.2672 26.8661 45.3224 27.1492 45.3217C27.4322 45.321 27.7123 45.2644 27.9734 45.1552C28.2345 45.0459 28.4714 44.8861 28.6705 44.685C28.8697 44.4839 29.0271 44.2455 29.1339 43.9833L30.9239 39.6484H40.9503L42.7403 43.9833C42.9026 44.3767 43.178 44.713 43.5316 44.9496C43.8852 45.1862 44.3011 45.3125 44.7266 45.3124C45.0797 45.3122 45.4272 45.225 45.7385 45.0585C46.0498 44.892 46.3153 44.6514 46.5115 44.3579C46.7077 44.0644 46.8285 43.7271 46.8633 43.3758C46.8981 43.0244 46.8458 42.67 46.711 42.3437H46.712ZM32.6983 35.3515L35.9376 27.5048L39.1768 35.3515H32.6983Z" fill="#4AA9BC"/>
<path d="M26.1562 33.4883C26.49 33.0272 26.6272 32.4526 26.5377 31.8905C26.4481 31.3284 26.1392 30.8248 25.6787 30.4902C25.6592 30.4756 24.2139 29.4033 22.1152 27.0986C25.9873 21.8564 28.1807 15.8926 29.0752 13.0859H32.2266C32.7964 13.0859 33.3428 12.8596 33.7457 12.4567C34.1486 12.0538 34.375 11.5073 34.375 10.9375C34.375 10.3677 34.1486 9.82124 33.7457 9.41832C33.3428 9.01542 32.7964 8.78906 32.2266 8.78906H20.8984V6.83594C20.8984 6.26614 20.6721 5.71967 20.2692 5.31676C19.8663 4.91385 19.3198 4.6875 18.75 4.6875C18.1802 4.6875 17.6337 4.91385 17.2308 5.31676C16.8279 5.71967 16.6016 6.26614 16.6016 6.83594V8.78906H5.27344C4.70364 8.78906 4.15717 9.01542 3.75426 9.41832C3.35135 9.82124 3.125 10.3677 3.125 10.9375C3.125 11.5073 3.35135 12.0538 3.75426 12.4567C4.15717 12.8596 4.70364 13.0859 5.27344 13.0859H24.5361C23.6064 15.7178 21.8945 19.873 19.2832 23.668C16.2158 19.5977 15.0762 16.9639 15.0674 16.9424C14.8428 16.4234 14.4227 16.0139 13.8982 15.8027C13.3737 15.5914 12.787 15.5955 12.2655 15.814C11.7439 16.0325 11.3296 16.4478 11.1122 16.9698C10.8949 17.4918 10.8921 18.0785 11.1045 18.6025C11.1611 18.7373 12.5254 21.9453 16.2666 26.7988C16.3564 26.915 16.4453 27.0283 16.5342 27.1416C12.7021 31.4727 8.94238 34.1592 7.36914 35.0264C6.86888 35.2992 6.4975 35.7596 6.33671 36.3063C6.17591 36.853 6.23886 37.4411 6.51172 37.9414C6.78458 38.4417 7.24498 38.813 7.79166 38.9738C8.33834 39.1346 8.9265 39.0717 9.42676 38.7988C9.6377 38.6836 14.1729 36.1729 19.3516 30.4404C21.5508 32.792 23.0625 33.9014 23.1533 33.9658C23.3818 34.1318 23.6408 34.2511 23.9155 34.3169C24.1902 34.3827 24.4751 34.3936 24.754 34.3492C25.0329 34.3048 25.3003 34.2058 25.5409 34.0579C25.7816 33.91 25.9906 33.7161 26.1562 33.4873V33.4883Z" fill="black"/>
</svg>
