<svg width="11" height="15" viewBox="0 0 11 15" fill="none" xmlns="http://www.w3.org/2000/svg">
<path d="M5.41665 15C4.43929 14.1024 3.53335 13.1183 2.70833 12.0581C1.47023 10.4659 6.80095e-07 8.09468 6.80095e-07 5.83512C-0.000536264 4.68115 0.316881 3.55294 0.912082 2.59327C1.50728 1.63361 2.35351 0.885634 3.34368 0.444003C4.33384 0.0023718 5.42342 -0.113061 6.47454 0.112313C7.52565 0.337687 8.49105 0.893737 9.24855 1.71009C9.75288 2.2507 10.1526 2.89364 10.4246 3.6017C10.6967 4.30976 10.8356 5.06888 10.8333 5.83512C10.8333 8.09468 9.36307 10.4659 8.12498 12.0581C7.29995 13.1183 6.39402 14.1024 5.41665 15ZM5.41665 3.33561C4.80097 3.33561 4.21051 3.59895 3.77516 4.0677C3.33981 4.53645 3.09523 5.17221 3.09523 5.83512C3.09523 6.49803 3.33981 7.13379 3.77516 7.60254C4.21051 8.07129 4.80097 8.33463 5.41665 8.33463C6.03233 8.33463 6.6228 8.07129 7.05815 7.60254C7.4935 7.13379 7.73808 6.49803 7.73808 5.83512C7.73808 5.17221 7.4935 4.53645 7.05815 4.0677C6.6228 3.59895 6.03233 3.33561 5.41665 3.33561Z" fill="black" fill-opacity="0.5"/>
</svg>
