<svg width="33" height="36" viewBox="0 0 33 36" fill="none" xmlns="http://www.w3.org/2000/svg">
<path id="Vector" d="M2.84998 9.69462C3.11594 9.3434 3.4662 8.86798 3.7467 8.52819C4.58675 7.59162 4.69575 7.46883 5.46022 6.7764C5.68695 6.59366 5.95582 6.37379 6.21888 6.16677C4.27864 7.78007 4.03156 9.56612 5.81194 10.6697C5.80903 10.6697 5.80903 10.6697 5.80903 10.6726C8.29865 12.146 13.7546 11.8276 18.0595 9.94018C22.2292 8.11273 23.7683 5.49861 21.7103 3.94527C19.9038 3.61262 17.7499 3.57407 15.471 3.87389L15.2341 3.48984L15.4303 2.85308C16.7703 2.73459 18.0435 2.76314 19.1422 2.94731C19.4082 2.99157 19.7584 3.06724 20.02 3.12149C20.5258 3.24285 20.8005 3.31566 21.1304 3.41988C21.4676 3.51839 21.7554 3.6169 22.2568 3.79965C22.748 3.98953 22.9602 4.07519 23.3541 4.26793C23.7951 4.46562 24.2237 4.68922 24.6374 4.93752C27.9162 6.96343 25.8771 10.6597 20.0913 13.1925C14.3214 15.7166 6.96882 16.1135 3.67404 14.1119C3.67258 14.1091 3.66822 14.1062 3.6595 14.1033H3.66532C1.86605 12.984 1.67711 11.3593 2.84998 9.69462ZM17.8618 23.8574L17.8153 21.5816L16.1686 19.7827C10.7287 20.9934 5.38174 20.7336 2.40815 19.0132C2.39798 19.0018 2.37327 18.9904 2.3631 18.9789C0.680101 17.961 0.264439 16.6475 0.390881 15.2198C-0.00298085 17.3085 -0.0349549 18.0624 0.0217264 19.8498C0.0914879 20.9692 0.749863 22.0014 2.07388 22.8152L2.08405 22.8266C5.25384 24.7625 11.8579 25.1823 17.8618 23.8574ZM24.729 26.4629C17.0508 29.4882 7.44116 29.6667 3.26709 26.867C3.71786 27.9491 4.33122 28.9588 5.08671 29.8623C8.91778 32.4321 17.7383 32.268 24.7827 29.4911C28.9059 27.8678 31.5075 25.7077 32.1905 23.6832L32.3824 23.0736C32.8373 21.5288 32.923 20.2425 32.9957 19.0974C32.9129 21.5831 29.932 24.4099 24.729 26.4629ZM7.77979 32.2894C8.02105 32.5149 8.77971 33.4301 12.6239 34.4409C13.663 34.6665 16.2791 35.3903 21.1115 34.3381L21.1406 33.9055L20.7584 33.3173C16.2747 34.3595 11.294 34.0112 7.77979 32.2894ZM18.8748 14.2875L22.9573 17.3271C22.9573 17.3271 23.8308 17.9453 23.0067 18.3793C22.1856 18.809 20.0767 19.8613 20.0767 19.8613L17.9941 19.0974L16.9491 19.5543L18.7919 21.1262L18.8065 23.5718L19.8892 23.0993L20.6072 21.0334C20.6072 21.0334 22.812 20.1996 23.6869 19.8855C24.5662 19.5786 24.4485 20.6294 24.4485 20.6294L24.0153 25.642L25.4542 25.0138L27.8232 18.2508C27.8232 18.2508 29.0789 17.6512 29.9625 17.1244C30.8447 16.5975 31.147 15.7238 31.147 15.7238C31.147 15.7238 30.2866 15.3597 29.2954 15.6524C28.3042 15.9422 27.0122 16.4591 27.0122 16.4591L20.3093 13.6622L18.8748 14.2875ZM10.2374 4.67054L13.009 6.83922L13.7662 6.72786L12.2576 4.78191C12.2576 4.78191 11.9292 4.37929 12.371 4.28364C12.8157 4.18656 13.9406 3.96098 13.9406 3.96098L14.7865 4.62486L15.3562 4.54205L14.7109 3.5341L15.051 2.41621L14.5002 2.49473L13.8476 3.34564C13.8476 3.34564 12.7023 3.45129 12.2518 3.48841C11.7984 3.52268 11.9931 3.0444 11.9931 3.0444L12.8622 0.748657L12.1007 0.85859L10.095 3.72684C10.095 3.72684 9.42646 3.84676 8.94249 3.98239C8.45706 4.1166 8.20127 4.48494 8.20127 4.48494C8.20127 4.48494 8.55735 4.76763 9.05876 4.75763C9.56453 4.74764 10.2374 4.67054 10.2374 4.67054ZM23.9354 32.5364L22.142 31.6155L21.7292 31.7568L22.7916 32.6906C22.7916 32.6906 23.0183 32.8804 22.78 32.9818C22.5416 33.0817 21.9341 33.3273 21.9341 33.3273L21.4327 33.1074L21.1348 33.2131L21.5519 33.65L21.5112 34.2882L21.8222 34.1825L22.0548 33.6642C22.0548 33.6642 22.6855 33.4801 22.9369 33.4144C23.1869 33.3473 23.1302 33.6357 23.1302 33.6357L22.8933 35.0134L23.3076 34.8721L24.12 33.0503C24.12 33.0503 24.479 32.9118 24.7362 32.7848C24.9935 32.6577 25.0952 32.4236 25.0952 32.4236C25.0952 32.4236 24.867 32.3008 24.5851 32.3622C24.3017 32.4207 23.9354 32.5364 23.9354 32.5364Z" fill="black"/>
</svg>
